<?xml version="1.0" standalone="no"?>
<!DOCTYPE svg PUBLIC "-//W3C//DTD SVG 20010904//EN"
 "http://www.w3.org/TR/2001/REC-SVG-20010904/DTD/svg10.dtd">
<svg version="1.0" xmlns="http://www.w3.org/2000/svg"
 width="420.000000pt" height="420.000000pt" viewBox="0 0 420.000000 420.000000"
 preserveAspectRatio="xMidYMid meet">
<metadata>
Created by potrace 1.11, written by Peter Selinger 2001-2013
</metadata>
<g transform="translate(0.000000,420.000000) scale(0.100000,-0.100000)"
fill="#000000" stroke="none">
<path d="M570 4170 c-147 -38 -251 -98 -355 -205 -101 -104 -166 -230 -194
-375 -7 -37 -10 -526 -8 -1520 2 -1456 2 -1465 23 -1530 89 -275 302 -469 569
-518 22 -4 704 -7 1515 -7 l1475 0 80 28 c226 77 380 219 463 427 53 134 52
80 49 1655 -1 803 -6 1471 -9 1484 -51 173 -99 262 -196 360 -109 110 -219
170 -372 206 -56 13 -262 15 -1515 14 -1396 0 -1453 -1 -1525 -19z m3007 -236
c180 -46 318 -185 359 -360 10 -44 13 -352 13 -1472 0 -1227 -1 -1426 -14
-1481 -44 -187 -194 -330 -380 -364 -54 -9 -392 -12 -1480 -11 -1563 1 -1461
-3 -1582 65 -111 64 -209 200 -232 324 -6 30 -10 629 -10 1472 0 1543 -3 1453
53 1579 48 106 192 218 321 250 38 9 386 12 1472 13 1226 0 1430 -2 1480 -15z"/>
<path d="M1034 2785 c-61 -26 -91 -102 -63 -158 6 -12 172 -183 368 -380 196
-197 355 -362 353 -368 -1 -5 -166 -173 -366 -373 -200 -200 -369 -373 -375
-384 -19 -36 -16 -90 6 -120 26 -36 59 -52 108 -52 39 0 47 7 468 427 236 236
435 440 443 455 18 34 18 72 0 106 -20 37 -838 852 -856 853 -8 0 -24 2 -35 4
-11 2 -34 -2 -51 -10z"/>
<path d="M2154 1270 c-80 -7 -117 -35 -129 -97 -8 -44 17 -98 57 -123 32 -19
49 -20 551 -20 571 0 569 0 606 61 22 36 21 93 -1 129 -32 50 -39 51 -548 53
-261 1 -502 0 -536 -3z"/>
</g>
</svg>
