<?xml version="1.0" encoding="utf-8"?>
<!-- Generator: Adobe Illustrator 23.0.1, SVG Export Plug-In . SVG Version: 6.00 Build 0)  -->
<svg version="1.1" id="Capa_1" xmlns="http://www.w3.org/2000/svg" xmlns:xlink="http://www.w3.org/1999/xlink" x="0px" y="0px"
	 viewBox="0 0 272.9 313.5" style="enable-background:new 0 0 272.9 313.5;" xml:space="preserve">
<style type="text/css">
	.st0{fill:#666666;}
	.st1{fill:none;stroke:#B3B4B4;stroke-width:4;stroke-miterlimit:10;}
	.st2{fill:none;stroke:#666666;stroke-width:9;stroke-miterlimit:10;}
	.st3{fill:none;stroke:#666666;stroke-width:13;stroke-linecap:round;stroke-miterlimit:10;}
</style>
<g>
</g>
<g>
	<path class="st0" d="M269.4,81.7h-67.8c-5.5,0-10-4.5-10-10V4.8"/>
</g>
<g>
	<path class="st1" d="M260.1,9"/>
</g>
<g>
	<path class="st1" d="M257.4,9"/>
</g>
<g>
	<path class="st1" d="M206.5,9"/>
</g>
<g>
	<path class="st2" d="M264.8,81.5v215c0,5.5-4.5,10-10,10H19.9c-5.5,0-10-4.5-10-10V19c0-5.5,4.5-10,10-10h160.6
		c5.5,0,10.3,0,10.6,0c0.3,0,0.6,0,0.6,0"/>
</g>
<g>
	<path class="st1" d="M264.8,9"/>
</g>
<line class="st3" x1="49.6" y1="164.4" x2="227.6" y2="165"/>
<line class="st3" x1="49.6" y1="201.5" x2="227.6" y2="202.1"/>
<line class="st3" x1="49.6" y1="238.6" x2="227.6" y2="239.2"/>
<line class="st3" x1="78.1" y1="127.6" x2="227.6" y2="127.7"/>
</svg>
