<?xml version="1.0" standalone="no"?>
<!DOCTYPE svg PUBLIC "-//W3C//DTD SVG 20010904//EN"
 "http://www.w3.org/TR/2001/REC-SVG-20010904/DTD/svg10.dtd">
<svg version="1.0" xmlns="http://www.w3.org/2000/svg"
 width="700.000000pt" height="700.000000pt" viewBox="0 0 700.000000 700.000000"
 preserveAspectRatio="xMidYMid meet">
<metadata>
Created by potrace 1.11, written by Peter Selinger 2001-2013
</metadata>
<g transform="translate(0.000000,700.000000) scale(0.100000,-0.100000)"
fill="#000000" stroke="none">
<path d="M3044 6585 c-289 -63 -524 -296 -594 -588 -19 -77 -20 -119 -20 -759
l0 -677 -687 -3 c-673 -4 -690 -5 -768 -26 -276 -76 -475 -269 -566 -547 -21
-66 -23 -90 -27 -387 l-4 -318 950 0 950 0 71 198 c39 108 151 421 249 695
118 326 187 506 202 522 47 50 140 21 154 -47 3 -12 37 -399 76 -858 39 -458
72 -835 73 -837 2 -1 64 217 138 485 114 414 138 491 161 515 34 35 86 37 123
5 23 -21 34 -60 105 -363 43 -187 79 -337 79 -333 1 4 60 253 131 555 84 352
137 554 148 566 40 45 114 41 146 -7 10 -16 47 -253 111 -712 53 -379 97 -693
98 -698 2 -4 20 50 42 120 41 138 57 178 77 191 7 4 488 10 1068 13 l1055 5
-1 295 c-1 267 -3 302 -22 372 -61 224 -211 407 -415 507 -177 86 -148 84
-924 88 l-683 4 0 648 c0 702 -3 749 -55 887 -69 182 -219 345 -398 430 -148
70 -185 74 -606 73 -274 0 -393 -4 -437 -14z"/>
<path d="M2763 4070 c-24 -63 -108 -297 -188 -519 -89 -249 -153 -413 -166
-427 l-22 -24 -999 0 -998 0 6 -27 c60 -275 257 -493 530 -590 l79 -28 710 -5
710 -5 5 -705 c6 -757 4 -721 59 -859 69 -172 232 -339 407 -416 133 -59 184
-65 590 -65 340 0 377 2 450 20 251 65 450 240 547 481 54 135 57 183 57 895
l0 654 681 0 c777 0 756 -2 929 83 92 45 116 62 200 146 72 73 105 115 137
176 44 86 83 193 83 232 l0 23 -990 0 -989 0 -45 -142 c-25 -79 -68 -219 -96
-313 -42 -137 -58 -175 -81 -197 -38 -37 -79 -37 -119 0 l-31 27 -91 657 c-51
361 -94 655 -96 653 -2 -2 -57 -228 -122 -502 -108 -450 -121 -500 -145 -520
-16 -14 -39 -23 -60 -23 -21 0 -44 9 -60 23 -23 20 -34 61 -107 376 -45 194
-84 349 -85 345 -2 -5 -73 -261 -158 -569 -143 -518 -157 -562 -185 -587 -32
-30 -53 -34 -94 -18 -53 20 -51 2 -131 940 -41 487 -76 894 -78 905 -1 11 -21
-32 -44 -95z"/>
</g>
</svg>
