<?xml version="1.0" standalone="no"?>
<!DOCTYPE svg PUBLIC "-//W3C//DTD SVG 20010904//EN"
 "http://www.w3.org/TR/2001/REC-SVG-20010904/DTD/svg10.dtd">
<svg version="1.0" xmlns="http://www.w3.org/2000/svg"
 width="420.000000pt" height="420.000000pt" viewBox="0 0 420.000000 420.000000"
 preserveAspectRatio="xMidYMid meet">
<metadata>
Created by potrace 1.11, written by Peter Selinger 2001-2013
</metadata>
<g transform="translate(0.000000,420.000000) scale(0.100000,-0.100000)"
fill="#000000" stroke="none">
<path d="M614 4150 c-213 -32 -425 -181 -521 -365 -22 -44 -52 -114 -65 -155
l-23 -75 0 -1485 0 -1485 23 -75 c77 -244 237 -411 471 -491 52 -18 118 -19
1591 -19 1499 0 1538 0 1594 20 188 64 329 188 416 365 81 163 75 30 75 1685
0 1654 6 1520 -74 1685 -89 183 -232 304 -446 376 l-70 24 -1460 1 c-803 1
-1483 -2 -1511 -6z m2932 -241 c190 -35 348 -193 383 -383 15 -79 15 -2840 1
-2917 -5 -30 -25 -85 -44 -124 -59 -121 -160 -207 -286 -246 -64 -19 -96 -19
-1530 -17 l-1465 3 -57 23 c-125 50 -225 154 -280 290 l-23 57 -3 1430 c-2
1014 0 1449 8 1495 33 189 191 353 375 388 74 14 2844 15 2921 1z"/>
<path d="M1030 2757 c-62 -22 -98 -103 -69 -160 6 -12 174 -185 373 -385 l361
-362 -373 -373 c-205 -204 -377 -379 -382 -387 -15 -24 -12 -93 6 -118 24 -35
72 -55 117 -49 38 5 71 36 464 429 234 233 431 435 439 450 18 34 18 72 0 106
-22 40 -839 852 -858 852 -9 0 -22 2 -30 4 -7 3 -29 0 -48 -7z"/>
<path d="M2056 1209 c-45 -39 -55 -84 -30 -136 37 -75 24 -73 604 -73 580 0
567 -2 604 73 25 52 15 97 -30 136 l-35 31 -539 0 -539 0 -35 -31z"/>
</g>
</svg>
